<?xml version="1.0" encoding="UTF-8" standalone="no"?>
<!DOCTYPE svg PUBLIC "-//W3C//DTD SVG 1.1//EN"
 "http://www.w3.org/Graphics/SVG/1.1/DTD/svg11.dtd">
<!-- Generated by graphviz version 2.38.0 (20140413.2041)
 -->
<!-- Title: Family Tree2 Pages: 1 -->
<svg width="944pt" height="220pt"
 viewBox="0.00 0.00 943.89 220.00" xmlns="http://www.w3.org/2000/svg" xmlns:xlink="http://www.w3.org/1999/xlink">
<g id="graph0" class="graph" transform="scale(1 1) rotate(0) translate(4 216)">
<title>Family Tree2</title>
<polygon fill="white" stroke="none" points="-4,4 -4,-216 939.887,-216 939.887,4 -4,4"/>
<!-- John /Smith/ -->
<g id="node1" class="node"><title>John /Smith/</title>
<polygon fill="red" stroke="red" points="303.894,-18.5442 303.894,-33.4558 268.454,-44 218.333,-44 182.893,-33.4558 182.893,-18.5442 218.333,-8 268.454,-8 303.894,-18.5442"/>
<polygon fill="none" stroke="red" points="307.894,-15.5609 307.894,-36.4391 269.036,-48 217.751,-48 178.893,-36.4391 178.893,-15.5609 217.751,-4 269.036,-4 307.894,-15.5609"/>
<polygon fill="none" stroke="red" points="311.894,-12.5777 311.894,-39.4223 269.618,-52 217.168,-52 174.893,-39.4223 174.893,-12.5777 217.168,-3.55271e-15 269.618,-0 311.894,-12.5777"/>
<text text-anchor="middle" x="243.393" y="-22.3" font-family="Times,serif" font-size="14.00">John /Smith/</text>
</g>
<!-- Robert /Smith/ -->
<g id="node2" class="node"><title>Robert /Smith/</title>
<ellipse fill="green" stroke="green" cx="463.393" cy="-106" rx="63.8893" ry="18"/>
<text text-anchor="middle" x="463.393" y="-102.3" font-family="Times,serif" font-size="14.00">Robert /Smith/</text>
</g>
<!-- Robert /Smith/&#45;&#45;John /Smith/ -->
<g id="edge2" class="edge"><title>Robert /Smith/&#45;&#45;John /Smith/</title>
<path fill="none" stroke="black" d="M425.072,-91.4134C388.755,-78.5374 333.975,-59.1154 294.064,-44.9652"/>
</g>
<!-- Erin /Smith/ -->
<g id="node5" class="node"><title>Erin /Smith/</title>
<ellipse fill="#b2dfee" stroke="#b2dfee" cx="537.393" cy="-26" rx="54.6905" ry="18"/>
<text text-anchor="middle" x="537.393" y="-22.3" font-family="Times,serif" font-size="14.00">Erin /Smith/</text>
</g>
<!-- Robert /Smith/&#45;&#45;Erin /Smith/ -->
<g id="edge6" class="edge"><title>Robert /Smith/&#45;&#45;Erin /Smith/</title>
<path fill="none" stroke="black" d="M479.087,-88.4582C491.645,-75.2213 509.17,-56.7485 521.722,-43.5179"/>
</g>
<!-- Patrick /Smith/ -->
<g id="node6" class="node"><title>Patrick /Smith/</title>
<ellipse fill="#b2dfee" stroke="#b2dfee" cx="398.393" cy="-26" rx="64.189" ry="18"/>
<text text-anchor="middle" x="398.393" y="-22.3" font-family="Times,serif" font-size="14.00">Patrick /Smith/</text>
</g>
<!-- Robert /Smith/&#45;&#45;Patrick /Smith/ -->
<g id="edge4" class="edge"><title>Robert /Smith/&#45;&#45;Patrick /Smith/</title>
<path fill="none" stroke="black" d="M449.289,-88.0752C438.312,-74.9023 423.16,-56.7195 412.247,-43.6238"/>
</g>
<!-- Bryan /Smith/ -->
<g id="node13" class="node"><title>Bryan /Smith/</title>
<ellipse fill="#b2dfee" stroke="#b2dfee" cx="672.393" cy="-26" rx="61.1893" ry="18"/>
<text text-anchor="middle" x="672.393" y="-22.3" font-family="Times,serif" font-size="14.00">Bryan /Smith/</text>
</g>
<!-- Robert /Smith/&#45;&#45;Bryan /Smith/ -->
<g id="edge8" class="edge"><title>Robert /Smith/&#45;&#45;Bryan /Smith/</title>
<path fill="none" stroke="black" d="M500.277,-91.2347C538.48,-76.9771 597.812,-54.8343 635.878,-40.6277"/>
</g>
<!-- Sue /Williams/ -->
<g id="node3" class="node"><title>Sue /Williams/</title>
<ellipse fill="yellow" stroke="yellow" cx="234.393" cy="-106" rx="64.189" ry="18"/>
<text text-anchor="middle" x="234.393" y="-102.3" font-family="Times,serif" font-size="14.00">Sue /Williams/</text>
</g>
<!-- Sue /Williams/&#45;&#45;John /Smith/ -->
<g id="edge1" class="edge"><title>Sue /Williams/&#45;&#45;John /Smith/</title>
<path fill="none" stroke="black" d="M236.391,-87.6893C237.592,-77.2767 239.143,-63.8397 240.479,-52.257"/>
</g>
<!-- Sue /Williams/&#45;&#45;Patrick /Smith/ -->
<g id="edge3" class="edge"><title>Sue /Williams/&#45;&#45;Patrick /Smith/</title>
<path fill="none" stroke="black" d="M265.626,-90.1452C294.808,-76.266 338.132,-55.6608 367.276,-41.7995"/>
</g>
<!-- Anne /Johnson/ -->
<g id="node4" class="node"><title>Anne /Johnson/</title>
<ellipse fill="green" stroke="green" cx="689.393" cy="-106" rx="65.7887" ry="18"/>
<text text-anchor="middle" x="689.393" y="-102.3" font-family="Times,serif" font-size="14.00">Anne /Johnson/</text>
</g>
<!-- Anne /Johnson/&#45;&#45;Erin /Smith/ -->
<g id="edge5" class="edge"><title>Anne /Johnson/&#45;&#45;Erin /Smith/</title>
<path fill="none" stroke="black" d="M659.725,-89.7756C632.511,-75.8102 592.478,-55.2674 565.701,-41.5265"/>
</g>
<!-- Anne /Johnson/&#45;&#45;Bryan /Smith/ -->
<g id="edge7" class="edge"><title>Anne /Johnson/&#45;&#45;Bryan /Smith/</title>
<path fill="none" stroke="black" d="M685.62,-87.6893C682.784,-74.6736 678.917,-56.9321 676.097,-43.994"/>
</g>
<!-- Edward /Smith/ -->
<g id="node7" class="node"><title>Edward /Smith/</title>
<ellipse fill="blue" stroke="blue" cx="383.393" cy="-186" rx="66.8882" ry="18"/>
<text text-anchor="middle" x="383.393" y="-182.3" font-family="Times,serif" font-size="14.00">Edward /Smith/</text>
</g>
<!-- Edward /Smith/&#45;&#45;Robert /Smith/ -->
<g id="edge10" class="edge"><title>Edward /Smith/&#45;&#45;Robert /Smith/</title>
<path fill="none" stroke="black" d="M400.359,-168.458C413.936,-155.221 432.882,-136.749 446.452,-123.518"/>
</g>
<!-- Carol /Miller/ -->
<g id="node8" class="node"><title>Carol /Miller/</title>
<ellipse fill="blue" stroke="blue" cx="528.393" cy="-186" rx="59.5901" ry="18"/>
<text text-anchor="middle" x="528.393" y="-182.3" font-family="Times,serif" font-size="14.00">Carol /Miller/</text>
</g>
<!-- Carol /Miller/&#45;&#45;Robert /Smith/ -->
<g id="edge9" class="edge"><title>Carol /Miller/&#45;&#45;Robert /Smith/</title>
<path fill="none" stroke="black" d="M514.608,-168.458C503.652,-155.311 488.392,-136.998 477.382,-123.787"/>
</g>
<!-- Joseph /Johnson/ -->
<g id="node9" class="node"><title>Joseph /Johnson/</title>
<polygon fill="orange" stroke="orange" points="767.238,-178.544 767.238,-193.456 722.223,-204 658.563,-204 613.549,-193.456 613.549,-178.544 658.563,-168 722.223,-168 767.238,-178.544"/>
<polygon fill="none" stroke="orange" points="771.247,-175.374 771.247,-196.626 722.688,-208 658.099,-208 609.54,-196.626 609.54,-175.374 658.099,-164 722.688,-164 771.247,-175.374"/>
<polygon fill="none" stroke="orange" points="775.255,-172.205 775.255,-199.795 723.152,-212 657.635,-212 605.532,-199.795 605.532,-172.205 657.635,-160 723.152,-160 775.255,-172.205"/>
<text text-anchor="middle" x="690.393" y="-182.3" font-family="Times,serif" font-size="14.00">Joseph /Johnson/</text>
</g>
<!-- Joseph /Johnson/&#45;&#45;Anne /Johnson/ -->
<g id="edge14" class="edge"><title>Joseph /Johnson/&#45;&#45;Anne /Johnson/</title>
<path fill="none" stroke="black" d="M690.071,-159.891C689.923,-148.312 689.75,-134.854 689.617,-124.411"/>
</g>
<!-- Elizabeth /Davis/ -->
<g id="node10" class="node"><title>Elizabeth /Davis/</title>
<ellipse fill="yellow" stroke="yellow" cx="864.393" cy="-186" rx="71.4873" ry="18"/>
<text text-anchor="middle" x="864.393" y="-182.3" font-family="Times,serif" font-size="14.00">Elizabeth /Davis/</text>
</g>
<!-- Elizabeth /Davis/&#45;&#45;Anne /Johnson/ -->
<g id="edge13" class="edge"><title>Elizabeth /Davis/&#45;&#45;Anne /Johnson/</title>
<path fill="none" stroke="black" d="M830.652,-169.961C799.464,-156.06 753.401,-135.529 722.438,-121.728"/>
</g>
<!-- Steven /Williams/ -->
<g id="node11" class="node"><title>Steven /Williams/</title>
<ellipse fill="violet" stroke="violet" cx="75.3933" cy="-186" rx="75.2868" ry="18"/>
<text text-anchor="middle" x="75.3933" y="-182.3" font-family="Times,serif" font-size="14.00">Steven /Williams/</text>
</g>
<!-- Steven /Williams/&#45;&#45;Sue /Williams/ -->
<g id="edge12" class="edge"><title>Steven /Williams/&#45;&#45;Sue /Williams/</title>
<path fill="none" stroke="black" d="M106.807,-169.59C134.953,-155.782 175.98,-135.655 203.856,-121.981"/>
</g>
<!-- Nicole /Taylor/ -->
<g id="node12" class="node"><title>Nicole /Taylor/</title>
<ellipse fill="violet" stroke="violet" cx="233.393" cy="-186" rx="64.9885" ry="18"/>
<text text-anchor="middle" x="233.393" y="-182.3" font-family="Times,serif" font-size="14.00">Nicole /Taylor/</text>
</g>
<!-- Nicole /Taylor/&#45;&#45;Sue /Williams/ -->
<g id="edge11" class="edge"><title>Nicole /Taylor/&#45;&#45;Sue /Williams/</title>
<path fill="none" stroke="black" d="M233.615,-167.689C233.781,-154.763 234.006,-137.177 234.172,-124.262"/>
</g>
</g>
</svg>
